<?xml version="1.0" encoding="UTF-8"?>
<svg width="30px" height="30px" viewBox="0 0 30 30" version="1.1" xmlns="http://www.w3.org/2000/svg" xmlns:xlink="http://www.w3.org/1999/xlink">
    <!-- Generator: sketchtool 53 (72520) - https://sketchapp.com -->
    <title>F621910E-F4E0-4A59-85D2-4861FEE72DA0</title>
    <desc>Created with sketchtool.</desc>
    <defs>
        <path d="M11.2779222,1.98944931 C14.1246926,3.30478203 16.1052977,6.22831094 16.1052632,9.6244286 C16.1052632,14.1973173 12.514325,17.9139051 8.05266609,18 C3.59100716,17.9139403 0,14.1973173 0,9.6244286 C0,6.22831094 1.98060509,3.30478203 4.82737547,1.98944931 C4.82737547,1.98944931 5.79704024,1.54425598 5.79704024,2.58440197 C5.79704024,3.62454795 4.83638292,4.3226032 4.82420043,4.32038481 C3.12810672,5.45007652 2.00707527,7.40353258 2.00707527,9.6244286 C2.00707527,13.0663227 4.699511,15.866537 8.05266609,15.9521389 C11.4058212,15.866537 14.0982569,13.0663227 14.0982569,9.6244286 C14.0982569,7.4035678 12.97726,5.45004131 11.2811318,4.32038481 C11.2689493,4.3226032 10.3082574,3.62458317 10.3082574,2.58440197 C10.3082574,1.54422077 11.2779222,1.98944931 11.2779222,1.98944931 Z M7.99472452,0 C8.75262506,0 8.89470785,0.630542319 8.89473684,0.877191762 L8.89473684,4.73684211 L8.89473684,8.59649245 C8.89473684,8.84310895 8.75262506,9.47368421 7.99472452,9.47368421 C7.23685298,9.47368421 7,8.84314189 7,8.59649245 L7,4.73684211 L7,0.877191762 C7,0.630575263 7.23682399,0 7.99472452,0 Z" id="path-1"></path>
    </defs>
    <g id="Symbols" stroke="none" stroke-width="1" fill="none" fill-rule="evenodd">
        <g id="icon/log-off">
            <g id="color/Icon_grey" transform="translate(7.000000, 6.000000)">
                <mask id="mask-2" fill="white">
                    <use xlink:href="#path-1"></use>
                </mask>
                <use id="Mask" fill="#000000" xlink:href="#path-1"></use>
                <g mask="url(#mask-2)" fill="#474747" id="color-copy">
                    <g transform="translate(-7.000000, -6.000000)">
                        <rect x="0" y="0" width="30" height="30"></rect>
                    </g>
                </g>
            </g>
        </g>
    </g>
</svg>